<svg viewBox="0 0 640 400" data-background-color="none" preserveAspectRatio="xMidYMid meet" height="400" width="640" xmlns="http://www.w3.org/2000/svg" xmlns:xlink="http://www.w3.org/1999/xlink"><rect width="640" height="400" x="0" y="0" opacity="1" fill="none" data-fill-palette-color="background" id="background"></rect><g id="tight-bounds" transform="matrix(1,0,0,1,153.04772721475248,33.047727214752484)"><svg viewBox="0 0 333.90454557049503 333.90454557049503" height="333.90454557049503" width="333.90454557049503"><g><svg></svg></g><g><svg viewBox="0 0 333.90454557049503 333.90454557049503" height="333.90454557049503" width="333.90454557049503"><g><path d="M0 166.952c0-92.205 74.747-166.952 166.952-166.952 92.205 0 166.952 74.747 166.953 166.952 0 92.205-74.747 166.952-166.953 166.953-92.205 0-166.952-74.747-166.952-166.953zM166.952 327.306c88.561 0 160.354-71.793 160.354-160.354 0-88.561-71.793-160.354-160.354-160.354-88.561 0-160.354 71.793-160.354 160.354 0 88.561 71.793 160.354 160.354 160.354z" data-fill-palette-color="tertiary" fill="#a437db" stroke="transparent"></path><ellipse rx="160.27418187383762" ry="160.27418187383762" cx="166.95227278524752" cy="166.95227278524752" fill="#a437db" stroke="transparent" stroke-width="0" fill-opacity="1" data-fill-palette-color="tertiary"></ellipse></g><g transform="matrix(1,0,0,1,65.64323333182303,71.17305217166896)"><svg viewBox="0 0 202.61807890684898 191.55844122715712" height="191.55844122715712" width="202.61807890684898"><g><svg viewBox="0 0 202.61807890684898 191.55844122715712" height="191.55844122715712" width="202.61807890684898"><g><svg viewBox="0 0 213.1584412271571 201.52347192402766" height="191.55844122715712" width="202.61807890684898"><g transform="matrix(1,0,0,1,0,124.54959036977651)"><svg viewBox="0 0 213.1584412271571 76.97388155425116" height="76.97388155425116" width="213.1584412271571"><g id="textblocktransform"><svg viewBox="0 0 213.1584412271571 76.97388155425116" height="76.97388155425116" width="213.1584412271571" id="textblock"><g><svg viewBox="0 0 213.1584412271571 76.97388155425116" height="76.97388155425116" width="213.1584412271571"><g transform="matrix(1,0,0,1,0,0)"><svg width="213.1584412271571" viewBox="2.200000047683716 -24 68.38999938964844 24.700000762939453" height="76.97388155425116" data-palette-color="#ffffff"><path d="M2.2-1.4L2.2-1.4 2.7-6.8 4.1-6.7Q4.1-5 6.3-3.45 8.5-1.9 11.05-1.9L11.05-1.9Q16.3-1.9 16.3-5.1L16.3-5.1Q16.3-6.7 14.95-7.95 13.6-9.2 11.7-10.03 9.8-10.85 7.9-11.73 6-12.6 4.65-14.03 3.3-15.45 3.3-17.3L3.3-17.3Q3.3-23.8 12.9-23.8L12.9-23.8Q15.05-23.8 17.6-22.6L17.6-22.6 17.3-17.6 16.1-17.6Q16.1-19 14.48-20.3 12.85-21.6 10.95-21.6 9.05-21.6 7.73-20.85 6.4-20.1 6.4-18.63 6.4-17.15 7.75-16.2 9.1-15.25 11-14.65 12.9-14.05 14.8-13.3 16.7-12.55 18.05-10.85 19.4-9.15 19.4-6.6 19.4-4.05 17.75-2.35L17.75-2.35Q14.8 0.7 9.2 0.7L9.2 0.7Q4.85 0.7 2.2-1.4ZM42.8-6.1L42.8-6.1 43.7-5.2Q40.5 0.7 32.2 0.7L32.2 0.7Q28.35 0.7 25.62-2.7 22.9-6.1 22.9-10.3L22.9-10.3Q22.9-15.95 26.57-19.98 30.25-24 35.5-24L35.5-24Q38-24 39.9-22.55L39.9-22.55Q43.3-19.9 43.3-15.7L43.3-15.7Q43.3-15.1 43.07-14.25 42.85-13.4 42.7-13.4L42.7-13.4 26.6-12.9Q26.6-9 29.05-5.7 31.5-2.4 35-2.4L35-2.4Q37.5-2.4 39.62-3.43 41.75-4.45 42.8-6.1ZM27.1-14.9L27.1-14.9 38.8-15.4Q38.9-15.4 38.9-16.3L38.9-16.3Q38.9-18.9 37.37-20 35.85-21.1 33.17-21.1 30.5-21.1 28.8-19.45 27.1-17.8 27.1-14.9ZM57.3 0.7L57.3 0.7Q52.89 0.7 49.95-2.6 46.99-5.9 46.99-10.3L46.99-10.3Q46.99-15.9 51.22-19.95 55.45-24 60.14-24 64.84-24 67.72-20.68 70.59-17.35 70.59-13L70.59-13Q70.59-7.55 66.57-3.43 62.55 0.7 57.3 0.7ZM50.49-13Q50.49-8.35 53.32-5.28 56.14-2.2 59.67-2.2 63.2-2.2 65.19-4.85 67.19-7.5 67.19-10.3L67.19-10.3Q67.19-14.55 64.57-17.73 61.95-20.9 58.2-20.9 54.45-20.9 52.47-18.38 50.49-15.85 50.49-13L50.49-13Z" opacity="1" transform="matrix(1,0,0,1,0,0)" fill="#ffffff" class="undefined-text-0" data-fill-palette-color="quaternary" id="text-0"></path></svg></g></svg></g></svg></g></svg></g><g transform="matrix(1,0,0,1,65.42253665585281,0)"><svg viewBox="0 0 82.31336791545151 106.37790430797511" height="106.37790430797511" width="82.31336791545151"><g><svg xmlns="http://www.w3.org/2000/svg" xmlns:xlink="http://www.w3.org/1999/xlink" version="1.1" x="0" y="0" viewBox="12.982999801635742 1 75.68599700927734 97.81300354003906" enable-background="new 0 0 100 100" xml:space="preserve" height="106.37790430797511" width="82.31336791545151" class="icon-icon-0" data-fill-palette-color="quaternary" id="icon-0"><g fill="#ffffff" data-fill-palette-color="quaternary"><polygon fill-rule="evenodd" clip-rule="evenodd" points="12.983,10.59 30.001,98.813 24.129,39.764 53.15,37.872 53.096,27.989    64.549,1 53.622,18.977  " fill="#ffffff" data-fill-palette-color="quaternary"></polygon><polygon fill-rule="evenodd" clip-rule="evenodd" points="59.389,54.548 64.549,1.007 55.809,40.723 36.197,41.768 37.767,62.23    30.001,98.813 42.058,58.914  " fill="#ffffff" data-fill-palette-color="quaternary"></polygon><polygon fill-rule="evenodd" clip-rule="evenodd" points="62.8,67.182 63.349,56.729 47.37,60.484 47.338,72.281 30.001,98.813    51.681,71.197  " fill="none" data-fill-palette-color="quaternary"></polygon><polygon fill-rule="evenodd" clip-rule="evenodd" points="65.711,62.394 80.552,57.663 82.061,45.131 66.162,47.226  " fill="#none" data-fill-palette-color="quaternary"></polygon><polygon fill-rule="evenodd" clip-rule="evenodd" points="72.07,44.502 83.058,43.085 84.639,32.807 76.56,32.434 64.549,1    72.979,31.967  " fill="none" data-fill-palette-color="quaternary"></polygon><polygon fill-rule="evenodd" clip-rule="evenodd" points="87.413,31.294 88.669,21.788 79.125,19.094 64.549,1 79.032,23.437    78.61,30.437  " fill="#none" data-fill-palette-color="quaternary"></polygon></g></svg></g></svg></g><g></g></svg></g></svg></g></svg></g></svg></g><defs></defs></svg><rect width="333.90454557049503" height="333.90454557049503" fill="none" stroke="none" visibility="hidden"></rect></g></svg>